<svg xmlns="http://www.w3.org/2000/svg" width="94.662" height="16.117" viewBox="0 0 94.662 16.117">
  <g id="star-rated-4" transform="translate(0 0.65)">
    <path id="star" d="M8.485,1.511l1.745,3.537a.833.833,0,0,0,.628.456l3.9.567a.833.833,0,0,1,.462,1.421L12.4,10.245a.833.833,0,0,0-.24.738l.667,3.887a.834.834,0,0,1-1.209.879L8.126,13.914a.834.834,0,0,0-.776,0L3.86,15.749A.833.833,0,0,1,2.65,14.87l.667-3.887a.833.833,0,0,0-.24-.738L.253,7.492A.833.833,0,0,1,.715,6.071l3.9-.567a.833.833,0,0,0,.628-.456L6.991,1.511A.833.833,0,0,1,8.485,1.511Z" transform="translate(-0.001 -1.047)" fill="#ffb60e"/>
    <path id="star-2" data-name="star" d="M8.485,1.511l1.745,3.537a.833.833,0,0,0,.628.456l3.9.567a.833.833,0,0,1,.462,1.421L12.4,10.245a.833.833,0,0,0-.24.738l.667,3.887a.834.834,0,0,1-1.209.879L8.126,13.914a.834.834,0,0,0-.776,0L3.86,15.749A.833.833,0,0,1,2.65,14.87l.667-3.887a.833.833,0,0,0-.24-.738L.253,7.492A.833.833,0,0,1,.715,6.071l3.9-.567a.833.833,0,0,0,.628-.456L6.991,1.511A.833.833,0,0,1,8.485,1.511Z" transform="translate(19.631 -1.047)" fill="#ffb60e"/>
    <path id="star-3" data-name="star" d="M8.485,1.511l1.745,3.537a.833.833,0,0,0,.628.456l3.9.567a.833.833,0,0,1,.462,1.421L12.4,10.245a.833.833,0,0,0-.24.738l.667,3.887a.834.834,0,0,1-1.209.879L8.126,13.914a.834.834,0,0,0-.776,0L3.86,15.749A.833.833,0,0,1,2.65,14.87l.667-3.887a.833.833,0,0,0-.24-.738L.253,7.492A.833.833,0,0,1,.715,6.071l3.9-.567a.833.833,0,0,0,.628-.456L6.991,1.511A.833.833,0,0,1,8.485,1.511Z" transform="translate(39.262 -1.047)" fill="#ffb60e"/>
    <path id="star-4" data-name="star" d="M8.485,1.511l1.745,3.537a.833.833,0,0,0,.628.456l3.9.567a.833.833,0,0,1,.462,1.421L12.4,10.245a.833.833,0,0,0-.24.738l.667,3.887a.834.834,0,0,1-1.209.879L8.126,13.914a.834.834,0,0,0-.776,0L3.86,15.749A.833.833,0,0,1,2.65,14.87l.667-3.887a.833.833,0,0,0-.24-.738L.253,7.492A.833.833,0,0,1,.715,6.071l3.9-.567a.833.833,0,0,0,.628-.456L6.991,1.511A.833.833,0,0,1,8.485,1.511Z" transform="translate(59.262 -1.047)" fill="#ffb60e"/>
    <path id="star-5" data-name="star" d="M8.485,1.511l1.745,3.537a.833.833,0,0,0,.628.456l3.9.567a.833.833,0,0,1,.462,1.421L12.4,10.245a.833.833,0,0,0-.24.738l.667,3.887a.834.834,0,0,1-1.209.879L8.126,13.914a.834.834,0,0,0-.776,0L3.86,15.749A.833.833,0,0,1,2.65,14.87l.667-3.887a.833.833,0,0,0-.24-.738L.253,7.492A.833.833,0,0,1,.715,6.071l3.9-.567a.833.833,0,0,0,.628-.456L6.991,1.511A.833.833,0,0,1,8.485,1.511Z" transform="translate(58.893 -1.047)" fill="none" stroke="#ffb60e" stroke-width="1.3"/>
    <path id="star-6" data-name="star" d="M8.485,1.511l1.745,3.537a.833.833,0,0,0,.628.456l3.9.567a.833.833,0,0,1,.462,1.421L12.4,10.245a.833.833,0,0,0-.24.738l.667,3.887a.834.834,0,0,1-1.209.879L8.126,13.914a.834.834,0,0,0-.776,0L3.86,15.749A.833.833,0,0,1,2.65,14.87l.667-3.887a.833.833,0,0,0-.24-.738L.253,7.492A.833.833,0,0,1,.715,6.071l3.9-.567a.833.833,0,0,0,.628-.456L6.991,1.511A.833.833,0,0,1,8.485,1.511Z" transform="translate(38.893 -1.047)" fill="none" stroke="#ffb60e" stroke-width="1.3"/>
    <path id="star-7" data-name="star" d="M8.485,1.511l1.745,3.537a.833.833,0,0,0,.628.456l3.9.567a.833.833,0,0,1,.462,1.421L12.4,10.245a.833.833,0,0,0-.24.738l.667,3.887a.834.834,0,0,1-1.209.879L8.126,13.914a.834.834,0,0,0-.776,0L3.86,15.749A.833.833,0,0,1,2.65,14.87l.667-3.887a.833.833,0,0,0-.24-.738L.253,7.492A.833.833,0,0,1,.715,6.071l3.9-.567a.833.833,0,0,0,.628-.456L6.991,1.511A.833.833,0,0,1,8.485,1.511Z" transform="translate(78.524 -1.047)" fill="none" stroke="#ffb60e" stroke-width="1.3"/>
  </g>
</svg>
